<?xml version="1.0" encoding="utf-8"?>
<!-- Generator: Adobe Illustrator 19.1.0, SVG Export Plug-In . SVG Version: 6.00 Build 0)  -->
<svg version="1.1" id="Layer_1" xmlns="http://www.w3.org/2000/svg" xmlns:xlink="http://www.w3.org/1999/xlink" x="0px" y="0px"
	 viewBox="-111.1 338 286.5 112.3" style="enable-background:new -111.1 338 286.5 112.3;" xml:space="preserve">
<style type="text/css">
	.st0{fill:#FFFFFF;}
	.st1{fill:#93CE36;}
	.st2{fill:#AEDA68;}
	.st3{fill:#C9E69A;}
</style>
<g id="Logomark">
	<g>
		<g>
			<g>
				<path class="st0" d="M163.1,345.8v-4.6h-1.9v-0.7h4.5v0.7h-1.9v4.6H163.1z M171.9,345.8v-4.3l-1.7,3.7h-0.8l-1.7-3.7v4.3h-0.8
					v-5.4h1.1l1.8,3.9l1.8-3.9h1.1v5.4H171.9z"/>
			</g>
			<g id="XMLID_18_">
				<path id="XMLID_3925_" class="st0" d="M61.3,408c0,3.3-0.9,6.8-5.2,7.7l7,9.4h-8.2l-6.2-9.1h-1.8v9.1h-7v-25.7h11.5
					C57.9,399.4,61.3,402.8,61.3,408z M46.9,405.7v4.6h4.4c1.7,0,3-0.7,3-2.3s-1.3-2.3-3-2.3C51.3,405.7,46.9,405.7,46.9,405.7z"/>
				<path id="XMLID_3922_" class="st0" d="M42.8,383c0,7.7-5.3,12.9-13.3,12.9H18.2v-25.8h11.3C37.5,370.1,42.8,375.2,42.8,383z
					 M25.1,376.5v12.9h4.2c4.2,0,6.3-2.7,6.3-6.4c0-3.8-2-6.4-6.3-6.4h-4.2V376.5z"/>
				<path id="XMLID_3919_" class="st0" d="M69.2,395.8h-7.4l-1.7-4.9h-9.6l-1.7,4.9h-7.3l9.7-25.7h8.2L69.2,395.8z M52.7,384.7H58
					l-2.6-7.6L52.7,384.7z"/>
				<path id="XMLID_3917_" class="st0" d="M77.8,395.8h-7v-25.7h7V395.8z"/>
				<path id="XMLID_3914_" class="st0" d="M102.4,378.7c0,3.3-0.9,6.8-5.2,7.7l7,9.4H96l-6.2-9.1H88v9.1h-7v-25.7h11.5
					C98.9,370.1,102.4,373.5,102.4,378.7z M87.9,376.4v4.6h4.4c1.7,0,3-0.7,3-2.3s-1.3-2.3-3-2.3C92.3,376.4,87.9,376.4,87.9,376.4z
					"/>
				<path id="XMLID_3912_" class="st0" d="M118.1,386.1v9.7h-7v-9.6l-9.7-16.1h8l5.2,9.7l5.2-9.7h7.8L118.1,386.1z"/>
				<path id="XMLID_3910_" class="st0" d="M38.2,405.9h-7.3v19.3h-7v-19.3h-7.3v-6.4h21.6V405.9z"/>
				<path id="XMLID_3907_" class="st0" d="M90.2,425.1h-7.4l-1.7-4.9h-9.6l-1.7,4.9h-7.3l9.7-25.7h8.2L90.2,425.1z M73.6,414h5.3
					l-2.6-7.6L73.6,414z"/>
				<path id="XMLID_3904_" class="st0" d="M115.9,412.3c0,7.7-5.3,12.9-13.3,12.9H91.3v-25.8h11.3
					C110.6,399.4,115.9,404.5,115.9,412.3z M98.2,405.8v12.9h4.2c4.2,0,6.3-2.7,6.3-6.4c0-3.8-2-6.4-6.3-6.4h-4.2V405.8z"/>
				<path id="XMLID_3902_" class="st0" d="M137.7,425.1h-20.1v-25.7h20.1v6.2h-13.1v3.4h12.2v6.2h-12.2v3.7h13.1V425.1z"/>
				<path id="XMLID_3901_" class="st0" d="M42.7,351.4H35l-5,5v0.1h6c-0.7,2.5-2.6,3.8-5.8,3.8c-3.3,0-6.3-2.3-6.3-7
					c0-4,2.6-6.8,6.2-6.8c2.2,0,3.7,0.8,4.9,1.9l4.9-4.8c-2.2-2.2-5.3-3.6-9.4-3.6c-8.1,0-13.8,5.5-13.8,13.3
					c0,7.8,5.7,13.3,13.8,13.3c6,0,12.4-4.3,12.4-12.9C42.8,352.9,42.8,352.2,42.7,351.4z"/>
				<path id="XMLID_3897_" class="st0" d="M101.5,340.4c6.9,0,10,2.8,10,7.4c0,2.5-1.4,4.4-3.4,5.4c2.2,0.8,3.9,3,3.9,5.5
					c0,4.6-3,7.4-9.8,7.4H90v-25.7H101.5z M97,346.1v4.3h4.4c1.9,0,2.9-0.7,2.9-2.1c0-1.4-1-2.1-2.9-2.1H97V346.1z M97,356v4.4h4.8
					c2,0,3-0.7,3-2.2s-1-2.2-3-2.2H97z"/>
				<path id="XMLID_3881_" class="st0" d="M139.3,366.1h-7.4l-1.7-4.9h-9.6l-1.7,4.9h-7.3l9.7-25.7h8.2L139.3,366.1z M122.8,355h5.3
					l-2.6-7.6L122.8,355z"/>
				<path id="XMLID_26_" class="st0" d="M160.3,366.1H141v-25.7h7v19.3h12.4v6.4H160.3z"/>
				<path id="XMLID_20_" class="st0" d="M87.9,353.2c0,7.7-5.6,13.3-13.6,13.3s-13.6-5.7-13.6-13.3c0-7.7,5.6-13.3,13.6-13.3
					S87.9,345.6,87.9,353.2z M68,353.2c0,3.9,2.6,6.6,6.3,6.6s6.3-2.7,6.3-6.6s-2.6-6.6-6.3-6.6S68,349.3,68,353.2z"/>
				<polygon id="XMLID_19_" class="st0" points="58.8,359.7 51.7,359.7 51.7,340.4 44.7,340.4 44.7,366.1 63.6,366.1 63.6,366.1 
									"/>
			</g>
		</g>
		<path class="st0" d="M146.5,415.2c-2.7,0-5,2.2-5,5c0,2.7,2.2,5,5,5c2.7,0,5-2.2,5-5C151.4,417.4,149.2,415.2,146.5,415.2z
			 M146.5,423.2c-1.6,0-3-1.3-3-3c0-1.6,1.3-3,3-3s3,1.3,3,3C149.5,421.8,148.1,423.2,146.5,423.2z"/>
	</g>
	<circle class="st1" cx="-4.5" cy="347.2" r="5.7"/>
	<circle class="st1" cx="-4.5" cy="361.4" r="5.7"/>
	<circle class="st1" cx="-4.5" cy="375.5" r="5.7"/>
	<circle class="st1" cx="-18.6" cy="347.2" r="5.3"/>
	<circle class="st1" cx="-18.6" cy="361.4" r="5.3"/>
	<circle class="st1" cx="-18.6" cy="375.5" r="5.3"/>
	<circle class="st1" cx="-18.6" cy="389.7" r="5.3"/>
	<circle class="st1" cx="-4.5" cy="389.7" r="5.3"/>
	<circle class="st1" cx="-32.8" cy="347.2" r="5"/>
	<circle class="st1" cx="-32.8" cy="361.4" r="5"/>
	<circle class="st2" cx="-47" cy="347.2" r="5"/>
	<circle class="st2" cx="-47" cy="361.4" r="5"/>
	<circle class="st2" cx="-47" cy="375.5" r="5"/>
	<circle class="st2" cx="-32.8" cy="375.5" r="5"/>
	<circle class="st2" cx="-32.8" cy="389.7" r="5"/>
	<circle class="st2" cx="-18.6" cy="403.9" r="5"/>
	<circle class="st2" cx="-4.5" cy="403.9" r="5"/>
	<circle class="st2" cx="-47" cy="389.7" r="4.3"/>
	<circle class="st3" cx="-61.2" cy="361.4" r="4.3"/>
	<circle class="st3" cx="-61.2" cy="375.5" r="4.3"/>
	<circle class="st3" cx="-61.2" cy="389.7" r="4.3"/>
	<circle class="st3" cx="-75.3" cy="375.5" r="3.9"/>
	<circle class="st3" cx="-32.8" cy="403.9" r="3.9"/>
	<circle class="st3" cx="-18.6" cy="418.1" r="3.9"/>
	<circle class="st3" cx="-4.5" cy="418.1" r="3.9"/>
	<circle class="st3" cx="-47" cy="403.9" r="2.8"/>
	<circle class="st3" cx="-32.8" cy="418.1" r="2.8"/>
	<circle class="st3" cx="-4.5" cy="432.2" r="2.5"/>
	<circle class="st3" cx="-4.5" cy="446.4" r="1.8"/>
	<circle class="st3" cx="-18.6" cy="432.2" r="2.5"/>
	<circle class="st2" cx="-61.2" cy="347.2" r="3.2"/>
	<circle class="st2" cx="-75.3" cy="347.2" r="2.5"/>
	<circle class="st3" cx="-89.5" cy="347.2" r="2.1"/>
	<circle class="st3" cx="-103.7" cy="347.2" r="1.8"/>
	<circle class="st3" cx="-75.3" cy="361.4" r="3.2"/>
	<circle class="st3" cx="-89.5" cy="361.4" r="2.8"/>
	<path class="st3" d="M-103.7,358.2c-1.8,0-3.2,1.4-3.2,3.2c0,1.8,1.4,3.2,3.2,3.2c1.8,0,3.2-1.4,3.2-3.2
		C-100.5,359.6-101.9,358.2-103.7,358.2z M-103.7,363.3c-1.1,0-1.9-0.9-1.9-1.9c0-1.1,0.9-1.9,1.9-1.9s1.9,0.9,1.9,1.9
		S-102.6,363.3-103.7,363.3z"/>
	<path class="st3" d="M-103.7,358.2c-1.8,0-3.2,1.4-3.2,3.2c0,1.8,1.4,3.2,3.2,3.2c1.8,0,3.2-1.4,3.2-3.2
		C-100.5,359.6-101.9,358.2-103.7,358.2z M-103.7,363.3c-1.1,0-1.9-0.9-1.9-1.9c0-1.1,0.9-1.9,1.9-1.9s1.9,0.9,1.9,1.9
		S-102.6,363.3-103.7,363.3z"/>
	<path class="st3" d="M-103.7,371.6c-2.2,0-3.9,1.7-3.9,3.9c0,2.2,1.7,3.9,3.9,3.9c2.2,0,3.9-1.7,3.9-3.9
		C-99.8,373.4-101.5,371.6-103.7,371.6z M-103.7,377.9c-1.3,0-2.3-1-2.3-2.3c0-1.3,1-2.3,2.3-2.3c1.3,0,2.3,1,2.3,2.3
		C-101.3,376.8-102.4,377.9-103.7,377.9z"/>
	<path class="st3" d="M-89.5,371.6c-2.2,0-3.9,1.7-3.9,3.9c0,2.2,1.7,3.9,3.9,3.9c2.2,0,3.9-1.7,3.9-3.9
		C-85.6,373.4-87.4,371.6-89.5,371.6z M-89.5,377.9c-1.3,0-2.3-1-2.3-2.3c0-1.3,1-2.3,2.3-2.3c1.3,0,2.3,1,2.3,2.3
		C-87.2,376.8-88.2,377.9-89.5,377.9z"/>
	<path class="st3" d="M-103.7,385.1c-2.5,0-4.6,2.1-4.6,4.6s2.1,4.6,4.6,4.6s4.6-2.1,4.6-4.6S-101.1,385.1-103.7,385.1z
		 M-103.7,392.5c-1.5,0-2.8-1.2-2.8-2.8c0-1.5,1.2-2.8,2.8-2.8c1.5,0,2.8,1.2,2.8,2.8C-100.9,391.2-102.2,392.5-103.7,392.5z"/>
	<path class="st3" d="M-89.5,385.1c-2.5,0-4.6,2.1-4.6,4.6s2.1,4.6,4.6,4.6s4.6-2.1,4.6-4.6S-87,385.1-89.5,385.1z M-89.5,392.5
		c-1.5,0-2.8-1.2-2.8-2.8c0-1.5,1.2-2.8,2.8-2.8s2.8,1.2,2.8,2.8C-86.7,391.2-88,392.5-89.5,392.5z"/>
	<path class="st3" d="M-75.3,385.5c-2.3,0-4.3,1.9-4.3,4.3c0,2.3,1.9,4.3,4.3,4.3c2.3,0,4.3-1.9,4.3-4.3
		C-71.1,387.4-73,385.5-75.3,385.5z M-75.3,392.3c-1.4,0-2.6-1.1-2.6-2.6c0-1.4,1.1-2.6,2.6-2.6s2.6,1.1,2.6,2.6
		C-72.8,391.1-73.9,392.3-75.3,392.3z"/>
	<path class="st0" d="M-103.7,398.6c-2.9,0-5.3,2.4-5.3,5.3c0,2.9,2.4,5.3,5.3,5.3s5.3-2.4,5.3-5.3
		C-98.4,400.9-100.7,398.6-103.7,398.6z M-103.7,407.1c-1.8,0-3.2-1.4-3.2-3.2c0-1.8,1.4-3.2,3.2-3.2c1.8,0,3.2,1.4,3.2,3.2
		C-100.5,405.6-101.9,407.1-103.7,407.1z"/>
	<path class="st3" d="M-89.5,399.3c-2.5,0-4.6,2.1-4.6,4.6s2.1,4.6,4.6,4.6s4.6-2.1,4.6-4.6C-84.9,401.3-87,399.3-89.5,399.3z
		 M-89.5,406.6c-1.5,0-2.8-1.2-2.8-2.8c0-1.5,1.2-2.8,2.8-2.8s2.8,1.2,2.8,2.8S-88,406.6-89.5,406.6z"/>
	<path class="st3" d="M-75.3,399.6c-2.3,0-4.3,1.9-4.3,4.3c0,2.3,1.9,4.3,4.3,4.3c2.3,0,4.3-1.9,4.3-4.3
		C-71.1,401.5-73,399.6-75.3,399.6z M-75.3,406.4c-1.4,0-2.6-1.1-2.6-2.6c0-1.4,1.1-2.6,2.6-2.6s2.6,1.1,2.6,2.6
		C-72.8,405.3-73.9,406.4-75.3,406.4z"/>
	<path class="st3" d="M-61.2,400.7c-1.8,0-3.2,1.4-3.2,3.2c0,1.8,1.4,3.2,3.2,3.2c1.8,0,3.2-1.4,3.2-3.2
		C-58,402.1-59.4,400.7-61.2,400.7z M-61.2,405.8c-1.1,0-1.9-0.9-1.9-1.9c0-1.1,0.9-1.9,1.9-1.9c1.1,0,1.9,0.9,1.9,1.9
		C-59.2,404.9-60.1,405.8-61.2,405.8z"/>
	<path class="st3" d="M-61.2,400.7c-1.8,0-3.2,1.4-3.2,3.2c0,1.8,1.4,3.2,3.2,3.2c1.8,0,3.2-1.4,3.2-3.2
		C-58,402.1-59.4,400.7-61.2,400.7z M-61.2,405.8c-1.1,0-1.9-0.9-1.9-1.9c0-1.1,0.9-1.9,1.9-1.9c1.1,0,1.9,0.9,1.9,1.9
		C-59.2,404.9-60.1,405.8-61.2,405.8z"/>
	<path class="st0" d="M-103.7,413.4c-2.5,0-4.6,2.1-4.6,4.6s2.1,4.6,4.6,4.6s4.6-2.1,4.6-4.6S-101.1,413.4-103.7,413.4z
		 M-103.7,420.8c-1.5,0-2.8-1.2-2.8-2.8c0-1.5,1.2-2.8,2.8-2.8c1.5,0,2.8,1.2,2.8,2.8S-102.2,420.8-103.7,420.8z"/>
	<path class="st0" d="M-89.5,414.2c-2.2,0-3.9,1.7-3.9,3.9c0,2.2,1.7,3.9,3.9,3.9c2.2,0,3.9-1.7,3.9-3.9
		C-85.6,415.9-87.4,414.2-89.5,414.2z M-89.5,420.4c-1.3,0-2.3-1-2.3-2.3c0-1.3,1-2.3,2.3-2.3c1.3,0,2.3,1,2.3,2.3
		C-87.2,419.3-88.2,420.4-89.5,420.4z"/>
	<path class="st0" d="M-103.7,428.3c-2.2,0-3.9,1.7-3.9,3.9s1.7,3.9,3.9,3.9c2.2,0,3.9-1.7,3.9-3.9
		C-99.8,430.1-101.5,428.3-103.7,428.3z M-103.7,434.6c-1.3,0-2.3-1-2.3-2.3c0-1.3,1-2.3,2.3-2.3c1.3,0,2.3,1,2.3,2.3
		C-101.3,433.5-102.4,434.6-103.7,434.6z"/>
	<path class="st3" d="M-75.3,415.2c-1.6,0-2.8,1.3-2.8,2.8c0,1.6,1.3,2.8,2.8,2.8c1.6,0,2.8-1.3,2.8-2.8S-73.8,415.2-75.3,415.2z
		 M-75.3,419.8c-0.9,0-1.7-0.8-1.7-1.7c0-0.9,0.8-1.7,1.7-1.7s1.7,0.8,1.7,1.7C-73.6,419-74.4,419.8-75.3,419.8z"/>
	<path class="st3" d="M-61.2,416.3c-1,0-1.8,0.8-1.8,1.8s0.8,1.8,1.8,1.8s1.8-0.8,1.8-1.8S-60.2,416.3-61.2,416.3z M-61.2,419.1
		c-0.6,0-1.1-0.5-1.1-1.1c0-0.6,0.5-1.1,1.1-1.1s1.1,0.5,1.1,1.1C-60.1,418.6-60.6,419.1-61.2,419.1z"/>
	<path class="st3" d="M-47,430.5c-1,0-1.8,0.8-1.8,1.8s0.8,1.8,1.8,1.8s1.8-0.8,1.8-1.8C-45.2,431.2-46,430.5-47,430.5z M-47,433.3
		c-0.6,0-1.1-0.5-1.1-1.1c0-0.6,0.5-1.1,1.1-1.1s1.1,0.5,1.1,1.1C-45.9,432.8-46.4,433.3-47,433.3z"/>
	<path class="st3" d="M-47,415.9c-1.2,0-2.1,1-2.1,2.1c0,1.2,1,2.1,2.1,2.1c1.2,0,2.1-1,2.1-2.1C-44.9,416.9-45.8,415.9-47,415.9z
		 M-47,419.3c-0.7,0-1.3-0.6-1.3-1.3c0-0.7,0.6-1.3,1.3-1.3s1.3,0.6,1.3,1.3C-45.7,418.8-46.3,419.3-47,419.3z"/>
	<path class="st0" d="M-89.5,429.4c-1.6,0-2.8,1.3-2.8,2.8c0,1.6,1.3,2.8,2.8,2.8c1.6,0,2.8-1.3,2.8-2.8S-87.9,429.4-89.5,429.4z
		 M-89.5,433.9c-0.9,0-1.7-0.8-1.7-1.7c0-0.9,0.8-1.7,1.7-1.7s1.7,0.8,1.7,1.7C-87.8,433.2-88.6,433.9-89.5,433.9z"/>
	<path class="st0" d="M-75.3,430.1c-1.2,0-2.1,1-2.1,2.1c0,1.2,1,2.1,2.1,2.1c1.2,0,2.1-1,2.1-2.1
		C-73.2,431.1-74.2,430.1-75.3,430.1z M-75.3,433.5c-0.7,0-1.3-0.6-1.3-1.3s0.6-1.3,1.3-1.3c0.7,0,1.3,0.6,1.3,1.3
		C-74.1,432.9-74.6,433.5-75.3,433.5z"/>
	<path class="st3" d="M-32.8,430.1c-1.2,0-2.1,1-2.1,2.1c0,1.2,1,2.1,2.1,2.1c1.2,0,2.1-1,2.1-2.1
		C-30.7,431.1-31.6,430.1-32.8,430.1z M-32.8,433.5c-0.7,0-1.3-0.6-1.3-1.3s0.6-1.3,1.3-1.3c0.7,0,1.3,0.6,1.3,1.3
		S-32.1,433.5-32.8,433.5z"/>
	<path class="st3" d="M-61.2,430.8c-0.8,0-1.4,0.6-1.4,1.4s0.6,1.4,1.4,1.4s1.4-0.6,1.4-1.4C-59.7,431.4-60.4,430.8-61.2,430.8z
		 M-61.2,433.1c-0.5,0-0.9-0.4-0.9-0.9s0.4-0.9,0.9-0.9s0.9,0.4,0.9,0.9S-60.7,433.1-61.2,433.1z"/>
	<path class="st0" d="M-103.7,443.9c-1.4,0-2.5,1.1-2.5,2.5c0,1.4,1.1,2.5,2.5,2.5s2.5-1.1,2.5-2.5
		C-101.2,445-102.3,443.9-103.7,443.9z M-103.7,447.9c-0.8,0-1.5-0.7-1.5-1.5c0-0.8,0.7-1.5,1.5-1.5c0.8,0,1.5,0.7,1.5,1.5
		C-102.2,447.2-102.9,447.9-103.7,447.9z"/>
	<path class="st0" d="M-89.5,444.3c-1.2,0-2.1,1-2.1,2.1c0,1.2,1,2.1,2.1,2.1c1.2,0,2.1-1,2.1-2.1
		C-87.4,445.2-88.3,444.3-89.5,444.3z M-89.5,447.7c-0.7,0-1.3-0.6-1.3-1.3c0-0.7,0.6-1.3,1.3-1.3c0.7,0,1.3,0.6,1.3,1.3
		C-88.2,447.1-88.8,447.7-89.5,447.7z"/>
	<path class="st0" d="M-75.3,444.6c-1,0-1.8,0.8-1.8,1.8s0.8,1.8,1.8,1.8s1.8-0.8,1.8-1.8C-73.6,445.4-74.4,444.6-75.3,444.6z
		 M-75.3,447.5c-0.6,0-1.1-0.5-1.1-1.1c0-0.6,0.5-1.1,1.1-1.1s1.1,0.5,1.1,1.1C-74.3,447-74.7,447.5-75.3,447.5z"/>
	<path class="st0" d="M-61.2,445.3c-0.6,0-1.1,0.5-1.1,1.1c0,0.6,0.5,1.1,1.1,1.1s1.1-0.5,1.1-1.1
		C-60.1,445.8-60.6,445.3-61.2,445.3z M-61.2,447c-0.4,0-0.6-0.3-0.6-0.6c0-0.4,0.3-0.6,0.6-0.6c0.4,0,0.6,0.3,0.6,0.6
		C-60.5,446.8-60.8,447-61.2,447z"/>
	<path class="st0" d="M-47,445.3c-0.6,0-1.1,0.5-1.1,1.1c0,0.6,0.5,1.1,1.1,1.1s1.1-0.5,1.1-1.1C-45.9,445.8-46.4,445.3-47,445.3z
		 M-47,447c-0.4,0-0.6-0.3-0.6-0.6c0-0.4,0.3-0.6,0.6-0.6c0.4,0,0.6,0.3,0.6,0.6C-46.3,446.8-46.6,447-47,447z"/>
	<path class="st0" d="M-32.8,445c-0.8,0-1.4,0.6-1.4,1.4c0,0.8,0.6,1.4,1.4,1.4s1.4-0.6,1.4-1.4C-31.4,445.6-32,445-32.8,445z
		 M-32.8,447.2c-0.5,0-0.9-0.4-0.9-0.9s0.4-0.9,0.9-0.9s0.9,0.4,0.9,0.9C-32,446.9-32.3,447.2-32.8,447.2z"/>
	<path class="st3" d="M-18.6,445c-0.8,0-1.4,0.6-1.4,1.4c0,0.8,0.6,1.4,1.4,1.4s1.4-0.6,1.4-1.4C-17.2,445.6-17.9,445-18.6,445z
		 M-18.6,447.2c-0.5,0-0.9-0.4-0.9-0.9s0.4-0.9,0.9-0.9s0.9,0.4,0.9,0.9C-17.8,446.9-18.2,447.2-18.6,447.2z"/>
</g>
</svg>
